<?xml version="1.0" encoding="UTF-8"?>
<svg version="1.1" xmlns="http://www.w3.org/2000/svg" width="512" height="512">
<path d="M0 0 C0.88039948 0.00054382 1.76079895 0.00108765 2.6678772 0.00164795 C16.97813999 0.04219383 30.67528173 0.96160525 44.625 4.375 C45.5212207 4.58930664 46.41744141 4.80361328 47.34082031 5.02441406 C96.20650075 17.035406 140.64012436 48.33912104 166.92773438 91.51464844 C169.98118111 96.72011332 172.8443402 102.01956549 175.625 107.375 C176.12193359 108.32777832 176.12193359 108.32777832 176.62890625 109.29980469 C184.98428038 125.56481646 190.47191864 143.38941893 193.625 161.375 C193.80160156 162.35436523 193.97820312 163.33373047 194.16015625 164.34277344 C195.81300705 174.48714524 196.0238885 184.4913374 196 194.75 C195.99918427 196.07059921 195.99918427 196.07059921 195.99835205 197.4178772 C195.95780617 211.72813999 195.03839475 225.42528173 191.625 239.375 C191.30354004 240.71933105 191.30354004 240.71933105 190.97558594 242.09082031 C180.49830888 284.71671461 155.58086237 323.67260513 120.625 350.375 C120.05136719 350.81924316 119.47773438 351.26348633 118.88671875 351.72119141 C94.12623951 370.71508535 65.24831693 382.84467249 34.625 388.375 C33.60583496 388.56046387 32.58666992 388.74592773 31.53662109 388.93701172 C21.43555663 390.58403619 11.45682262 390.77376778 1.25 390.75 C0.36960052 390.74945618 -0.51079895 390.74891235 -1.4178772 390.74835205 C-15.72813999 390.70780617 -29.42528173 389.78839475 -43.375 386.375 C-44.2712207 386.16069336 -45.16744141 385.94638672 -46.09082031 385.72558594 C-95.13961673 373.66958481 -138.83488251 342.44485203 -165.56347656 299.46386719 C-168.32772276 294.8521483 -170.89413163 290.14433363 -173.375 285.375 C-173.89707031 284.37194824 -173.89707031 284.37194824 -174.4296875 283.34863281 C-181.82060602 268.92105973 -187.1222834 253.66854775 -190.75 237.875 C-190.9056543 237.20670166 -191.06130859 236.53840332 -191.22167969 235.84985352 C-192.61485115 229.30083184 -192.84857828 223.21848239 -193.375 216.375 C-207.565 216.375 -221.755 216.375 -236.375 216.375 C-237.365 219.345 -237.365 219.345 -238.375 222.375 C-244.82980936 231.60265 -253.30406724 237.33932637 -264.375 239.375 C-275.32406661 240.50433769 -285.26026079 238.69442481 -294.25 232.125 C-301.50420808 225.94646111 -307.445444 218.04989119 -308.61865234 208.36328125 C-309.61607914 195.73479629 -307.87417185 185.43773634 -299.5625 175.4375 C-291.5767823 167.18310395 -282.47834306 163.34891015 -271 162.9375 C-260.14521828 163.24398795 -251.15573716 166.7634093 -243.375 174.375 C-239.92176035 178.27264391 -237.64971585 181.27613661 -236.375 186.375 C-222.515 186.375 -208.655 186.375 -194.375 186.375 C-194.375 182.745 -194.375 179.115 -194.375 175.375 C-194.21209468 173.50699948 -194.0052256 171.64091525 -193.7109375 169.7890625 C-193.56172852 168.84957764 -193.41251953 167.91009277 -193.25878906 166.94213867 C-193.09088867 165.97123291 -192.92298828 165.00032715 -192.75 164 C-192.57178711 162.96270752 -192.39357422 161.92541504 -192.20996094 160.85668945 C-183.34982568 111.66494864 -155.8646868 66.84230854 -115.375 37.375 C-114.81151855 36.96185547 -114.24803711 36.54871094 -113.66748047 36.12304688 C-89.73766617 18.80189652 -62.37236406 7.61169335 -33.375 2.375 C-31.84625244 2.0968042 -31.84625244 2.0968042 -30.28662109 1.81298828 C-20.18555663 0.16596381 -10.20682262 -0.02376778 0 0 Z M35.640625 110.64453125 C27.61762559 121.51289673 26.5516071 133.29540045 27.625 146.375 C29.98990436 157.83465084 36.7039746 166.19837458 45.625 173.375 C42.50169917 187.35930444 38.73058445 201.13972988 34.875 214.9375 C34.26661936 217.12426337 33.65854443 219.31111182 33.05078125 221.49804688 C31.57903559 226.79134828 30.103551 232.0835957 28.625 237.375 C27.74529541 237.5611084 26.86559082 237.7472168 25.95922852 237.93896484 C24.79834717 238.19371582 23.63746582 238.4484668 22.44140625 238.7109375 C20.71966187 239.0829126 20.71966187 239.0829126 18.96313477 239.46240234 C15.05279387 240.53143286 11.93172061 242.13273934 8.52734375 244.2890625 C6.44942215 245.47522719 5.00130222 246.06353506 2.625 246.375 C0.5480957 245.45727539 0.5480957 245.45727539 -1.69921875 243.97265625 C-2.55128906 243.4194873 -3.40335938 242.86631836 -4.28125 242.29638672 C-5.65796875 241.37623779 -5.65796875 241.37623779 -7.0625 240.4375 C-9.03497799 239.14946655 -11.00764184 237.86171771 -12.98046875 236.57421875 C-14.0173584 235.89149902 -15.05424805 235.2087793 -16.12255859 234.50537109 C-19.45909499 232.31991722 -22.81257735 230.16358237 -26.17578125 228.01953125 C-26.73665939 227.66192215 -27.29753754 227.30431305 -27.87541199 226.93586731 C-29.54185455 225.87377537 -31.2084265 224.81188646 -32.875 223.75 C-34.94857161 222.42550396 -37.02152681 221.1000422 -39.09375 219.7734375 C-40.01929688 219.18143555 -40.94484375 218.58943359 -41.8984375 217.97949219 C-43.94483688 216.65369006 -45.96116257 215.29730964 -47.96875 213.9140625 C-50.17974796 212.19539306 -50.17974796 212.19539306 -52.375 212.375 C-52.045 211.715 -51.715 211.055 -51.375 210.375 C-50.45397297 195.89524725 -51.80869487 183.93685696 -61.375 172.375 C-69.24003778 163.94323718 -78.59553606 157.84531447 -90.31640625 157.13671875 C-105.50626433 156.7711742 -116.64775708 160.12188175 -128.0625 170.5625 C-132.34160017 175.21244718 -132.34160017 175.21244718 -137.375 185.375 C-155.855 185.705 -174.335 186.035 -193.375 186.375 C-195.11230989 201.90315722 -195.11230989 201.90315722 -192.375 216.375 C-174.225 216.705 -156.075 217.035 -137.375 217.375 C-134.405 222.82 -134.405 222.82 -131.375 228.375 C-126.05712809 234.4905527 -120.59485887 238.71374455 -113.375 242.375 C-112.71371094 242.71660156 -112.05242187 243.05820313 -111.37109375 243.41015625 C-102.21001417 247.26462222 -89.38775084 246.83524104 -80.125 243.625 C-77.17072844 242.36469149 -74.60085817 240.9379932 -72 239.0625 C-69.375 237.375 -69.375 237.375 -67.00756836 237.58911133 C-64.13158519 238.44766552 -62.12009988 239.59311992 -59.62890625 241.26171875 C-58.26463501 242.16506958 -58.26463501 242.16506958 -56.87280273 243.08666992 C-55.90415283 243.73869385 -54.93550293 244.39071777 -53.9375 245.0625 C-51.87838351 246.42825905 -49.8184661 247.79281123 -47.7578125 249.15625 C-46.7049707 249.85492188 -45.65212891 250.55359375 -44.56738281 251.2734375 C-39.5201847 254.59603473 -34.41845416 257.83119568 -29.3125 261.0625 C-27.5296556 262.19094456 -25.7470855 263.31982263 -23.96484375 264.44921875 C-23.16933105 264.95243652 -22.37381836 265.4556543 -21.55419922 265.97412109 C-19.63707757 267.20652576 -17.75531134 268.47649387 -15.87890625 269.76953125 C-13.59012794 271.55492053 -13.59012794 271.55492053 -11.375 271.375 C-11.705 272.035 -12.035 272.695 -12.375 273.375 C-13.29602703 287.85475275 -11.94130513 299.81314304 -2.375 311.375 C5.49003778 319.80676282 14.84553606 325.90468553 26.56640625 326.61328125 C41.02644939 326.96126278 52.15509 324.27562096 63.0078125 314.15234375 C73.37046665 303.36218737 76.13852702 292.4715186 75.90234375 277.9375 C75.48159117 267.73895983 70.7347056 258.36480276 63.4609375 251.26171875 C61.55202391 249.57877196 59.60727044 247.96966113 57.625 246.375 C60.74830083 232.39069556 64.51941555 218.61027012 68.375 204.8125 C68.98338064 202.62573663 69.59145557 200.43888818 70.19921875 198.25195312 C71.67096441 192.95865172 73.146449 187.6664043 74.625 182.375 C75.50905518 182.18309082 76.39311035 181.99118164 77.30395508 181.79345703 C78.46822021 181.53419434 79.63248535 181.27493164 80.83203125 181.0078125 C81.98421143 180.75402832 83.1363916 180.50024414 84.32348633 180.23876953 C95.00749092 177.44353118 104.24147454 169.63965191 110.0625 160.375 C110.94994419 158.72581193 111.80695366 157.05968949 112.625 155.375 C112.96402344 154.715 113.30304688 154.055 113.65234375 153.375 C117.48737776 144.3264405 117.09910792 131.50608794 114 122.3125 C108.47836225 109.75460858 99.79989937 100.59419973 87.0703125 95.25 C67.7408043 88.33337087 48.58566032 95.68532086 35.640625 110.64453125 Z " fill="#000000" transform="translate(316.375,-0.375)"/>
<path d="M0 0 C1.96360207 1.38486385 1.96360207 1.38486385 3.85195923 3.12864685 C4.88855619 4.07893926 4.88855619 4.07893926 5.94609451 5.04842949 C9.03477031 7.98321332 12.09915228 10.93559382 15.11865234 13.94165039 C16.11044998 14.92359123 16.11044998 14.92359123 17.12228394 15.92536926 C19.27968934 18.06327815 21.43324795 20.20499951 23.5859375 22.34765625 C24.32631886 23.08396208 25.06670021 23.82026791 25.82951736 24.57888603 C29.73809038 28.46671288 33.64346094 32.35772511 37.54638672 36.2512207 C41.5729976 40.26670947 45.61116094 44.27037351 49.65193748 48.27159977 C52.76579259 51.35933985 55.87075715 54.45590448 58.97337723 57.55492973 C60.45876863 59.03545267 61.94753493 60.5125977 63.43973923 61.98625374 C65.52191788 64.04412113 67.59114551 66.11421811 69.65771484 68.18774414 C70.27380615 68.79102539 70.88989746 69.39430664 71.5246582 70.01586914 C75.4991982 74.03939903 77.71537038 77.49549782 78.1875 83.30859375 C77.65075206 89.40291937 75.64938836 93.00833 71 97 C66.96327287 99.44328221 62.61863301 99.57504719 58 99 C54.13061942 97.57859489 51.3895643 95.55417957 48.31640625 92.8828125 C47.6932251 92.34285645 47.07004395 91.80290039 46.42797852 91.24658203 C45.95674561 90.83520996 45.4855127 90.42383789 45 90 C44.27052155 90.7383609 43.54104309 91.4767218 42.78945923 92.23745728 C35.88663621 99.22164841 28.97306153 106.195039 22.04903603 113.15821266 C18.49034348 116.73770878 14.93543861 120.32079889 11.38916016 123.91259766 C7.96156086 127.38391278 4.52405521 130.84513617 1.07969284 134.29981613 C-0.22743016 135.61428446 -1.53104989 136.93224684 -2.83094406 138.25386429 C-13.18725404 148.77617987 -22.83758556 158.06667748 -38.45727539 158.38061523 C-51.14905824 158.34953111 -60.56274501 156.00909975 -70 147 C-78.80850953 137.77286823 -81.62574301 128.14955676 -81.47070312 115.63525391 C-80.76697578 97.85865187 -68.71969936 87.4211011 -56.84765625 75.65234375 C-55.57926785 74.38769293 -54.31132579 73.12259431 -53.04380798 71.85707092 C-49.73240136 68.55324211 -46.41503007 65.25546803 -43.09631348 61.95898438 C-39.70050849 58.58376496 -36.31047131 55.20276297 -32.91992188 51.82226562 C-26.28553113 45.20922132 -19.64481481 38.60256895 -13 32 C-13.41137207 31.52876709 -13.82274414 31.05753418 -14.24658203 30.57202148 C-14.78653809 29.94884033 -15.32649414 29.32565918 -15.8828125 28.68359375 C-16.68549561 27.76018188 -16.68549561 27.76018188 -17.50439453 26.81811523 C-21.10197167 22.4447628 -22.53659702 18.53493487 -22.28125 12.94921875 C-21.61258222 8.31497953 -19.48458384 5.21972619 -16.0625 2.1875 C-10.87766861 -1.51595099 -6.07085561 -1.68350326 0 0 Z " fill="#000000" transform="translate(81,354)"/>
<path d="M0 0 C3.94547509 1.78719191 5.55849024 3.80854124 8.0625 7.375 C12.14256824 13.04522206 16.63474173 18.12985746 21.421875 23.2109375 C23.22539304 25.16201611 24.93086495 27.10143013 26.609375 29.15234375 C28.49928577 31.40356099 30.27199312 33.2987578 32.5 35.1875 C33.5209375 36.05761719 33.5209375 36.05761719 34.5625 36.9453125 C35.366875 37.62335938 36.17125 38.30140625 37 39 C38.04218483 39.89262454 39.08381389 40.78589822 40.125 41.6796875 C45.94469246 46.65950314 51.79608108 51.49911764 58 56 C56.54254576 59.36335594 54.68882146 61.54534005 52.0859375 64.109375 C50.94511719 65.24052734 50.94511719 65.24052734 49.78125 66.39453125 C48.9871875 67.17183594 48.193125 67.94914062 47.375 68.75 C46.57320313 69.54277344 45.77140625 70.33554687 44.9453125 71.15234375 C42.96797154 73.10614493 40.98611091 75.05512103 39 77 C35.10604884 75.41600411 32.48847765 72.75803057 29.58886719 69.81591797 C29.06159027 69.28893311 28.53431335 68.76194824 27.99105835 68.21899414 C26.25487928 66.48142524 24.525886 64.73688686 22.796875 62.9921875 C21.59233563 61.78391678 20.38735303 60.57608778 19.1819458 59.36868286 C16.01451894 56.19362923 12.85314487 53.01261478 9.69299316 49.83032227 C6.46562911 46.58247924 3.23257772 43.34030867 0 40.09765625 C-6.33891303 33.73731018 -12.67144624 27.37065247 -19 21 C-17.42411996 17.6752055 -15.7182851 15.48368383 -13.0859375 12.890625 C-12.32539062 12.13652344 -11.56484375 11.38242187 -10.78125 10.60546875 C-9.9871875 9.82816406 -9.193125 9.05085938 -8.375 8.25 C-7.57320312 7.45722656 -6.77140625 6.66445313 -5.9453125 5.84765625 C-3.96797154 3.89385507 -1.98611091 1.94487897 0 0 Z " fill="#000000" transform="translate(131,323)"/>
<path d="M0 0 C4.61581142 2.18643699 6.72864085 4.49599804 9 9 C9.82885269 14.54808604 9.7240695 19.47140883 7.3125 24.5625 C4.21064779 27.8320199 1.61649202 29.75850523 -2.90234375 30.43359375 C-9.05071801 30.44150672 -13.31314296 30.4465054 -18 26 C-21.88937897 20.55860924 -21.79042609 15.48149391 -21 9 C-16.63929544 -0.20593186 -9.3488659 -1.1401056 0 0 Z " fill="#000000" transform="translate(354,267)"/>
<path d="M0 0 C4.61581142 2.18643699 6.72864085 4.49599804 9 9 C9.82885269 14.54808604 9.7240695 19.47140883 7.3125 24.5625 C4.21064779 27.8320199 1.61649202 29.75850523 -2.90234375 30.43359375 C-9.05071801 30.44150672 -13.31314296 30.4465054 -18 26 C-21.88937897 20.55860924 -21.79042609 15.48149391 -21 9 C-16.63929544 -0.20593186 -9.3488659 -1.1401056 0 0 Z " fill="#000000" transform="translate(227,186)"/>
<path d="M0 0 C4.61581142 2.18643699 6.72864085 4.49599804 9 9 C9.82885269 14.54808604 9.7240695 19.47140883 7.3125 24.5625 C4.21064779 27.8320199 1.61649202 29.75850523 -2.90234375 30.43359375 C-9.05071801 30.44150672 -13.31314296 30.4465054 -18 26 C-21.88937897 20.55860924 -21.79042609 15.48149391 -21 9 C-16.63929544 -0.20593186 -9.3488659 -1.1401056 0 0 Z " fill="#000000" transform="translate(394,122)"/>
</svg>
