<svg fill="#ffffff" height="200px" width="200px" version="1.1" id="Layer_1" xmlns="http://www.w3.org/2000/svg" xmlns:xlink="http://www.w3.org/1999/xlink" viewBox="0 0 472.615 472.615" xml:space="preserve" stroke="#ffffff"><g id="SVGRepo_bgCarrier" stroke-width="0"></g><g id="SVGRepo_tracerCarrier" stroke-linecap="round" stroke-linejoin="round"></g><g id="SVGRepo_iconCarrier"> <g> <g> <polygon points="472.615,403.692 472.615,344.583 0,344.583 0,403.692 147.692,403.692 147.692,452.923 108.308,452.923 108.308,472.615 364.308,472.615 364.308,452.923 324.923,452.923 324.923,403.692 "></polygon> </g> </g> <g> <g> <circle cx="177.231" cy="157.509" r="9.846"></circle> </g> </g> <g> <g> <circle cx="305.231" cy="157.509" r="9.846"></circle> </g> </g> <g> <g> <circle cx="78.769" cy="255.97" r="9.846"></circle> </g> </g> <g> <g> <path d="M0,0v324.891h472.615V0H0z M393.846,98.429c-4.546,0-8.805-1.117-12.655-2.959l-49.381,49.379 c1.842,3.851,2.96,8.11,2.96,12.656c0,16.288-13.25,29.538-29.538,29.538c-12.819,0-23.647-8.256-27.724-19.692h-72.552 c-4.077,11.436-14.905,19.692-27.724,19.692c-4.546,0-8.805-1.118-12.655-2.959l-59.225,59.232 c1.841,3.85,2.957,8.107,2.957,12.65c0,16.288-13.25,29.538-29.538,29.538c-16.289,0-29.538-13.25-29.538-29.538 c0-16.289,13.25-29.539,29.538-29.539c4.549,0,8.809,1.118,12.661,2.963l59.223-59.229c-1.843-3.851-2.961-8.11-2.961-12.656 c0-16.289,13.25-29.538,29.538-29.538c12.819,0,23.646,8.256,27.724,19.692h72.552c4.077-11.436,14.905-19.692,27.724-19.692 c4.546,0,8.804,1.117,12.655,2.96l49.381-49.38c-1.842-3.851-2.96-8.11-2.96-12.656c0-16.288,13.25-29.538,29.538-29.538 c16.288,0,29.539,13.25,29.539,29.538C423.385,85.179,410.135,98.429,393.846,98.429z"></path> </g> </g> <g> <g> <circle cx="393.846" cy="68.894" r="9.846"></circle> </g> </g> </g></svg>