<?xml version="1.0" encoding="UTF-8"?>
<svg version="1.1" xmlns="http://www.w3.org/2000/svg" width="512" height="512">
<path d="M0 0 C9.77482321 1.39996418 19.24868305 3.70228717 28.796875 6.15625 C30.44529559 6.57588539 32.09383823 6.99504164 33.74249268 7.41375732 C37.2541598 8.30652005 40.76507149 9.20217149 44.27539062 10.10021973 C52.62185714 12.23535689 60.97197526 14.35614488 69.32170105 16.47849274 C72.18450333 17.20633564 75.0471526 17.93477811 77.90979004 18.66326904 C90.72956664 21.92415828 103.55666347 25.15478151 116.390625 28.359375 C117.23190697 28.5694519 118.07318893 28.77952881 118.93996429 28.99597168 C126.9799475 31.00311311 135.020894 33.0063807 143.06219101 35.00825119 C145.98433767 35.73593703 148.90627606 36.46445673 151.82817841 37.19312286 C153.81931905 37.6892511 155.81079983 38.18399589 157.80230713 38.6786499 C159.56692291 39.11857269 159.56692291 39.11857269 161.3671875 39.56738281 C162.38925293 39.82158997 163.41131836 40.07579712 164.46435547 40.33770752 C166.32843322 40.82459149 168.17225339 41.39075113 170 42 C167.43052949 66.47758745 154.79535411 88.49055771 138 106 C136.86304688 107.23169922 136.86304688 107.23169922 135.703125 108.48828125 C124.8661703 119.87416666 112.24833706 127.59862693 98 134 C96.93265625 134.48339844 95.8653125 134.96679688 94.765625 135.46484375 C80.50888286 141.41721452 65.34686081 143.57663832 50 144 C51.37049684 139.88850948 54.2362285 138.50593825 57.6875 136.1875 C61.54674262 133.58626496 65.08788188 131.03230772 68.33203125 127.67578125 C69.65267578 126.35126953 69.65267578 126.35126953 71 125 C71.66 125 72.32 125 73 125 C73.26683594 124.40058594 73.53367187 123.80117188 73.80859375 123.18359375 C75.02797109 120.94873496 76.17604079 119.74381234 78.0625 118.0625 C81.39604353 114.79943308 84.25808773 111.26508613 87 107.5 C87.41000244 106.96640869 87.82000488 106.43281738 88.24243164 105.88305664 C90.53564041 102.63974068 91.00735206 101.11487594 90.75 97.09375 C90.5025 96.0728125 90.255 95.051875 90 94 C87.07315371 93.69893522 84.8547832 93.493474 82 94 C79.84672059 96.05209741 78.53025563 97.63501591 76.9375 100.0625 C65.41275364 116.02584498 51.06311769 128.40128016 33.75 137.6875 C33.12488525 138.0393335 32.49977051 138.39116699 31.85571289 138.75366211 C25.65197993 141.88830761 20.04107772 141.2139065 13.50732422 139.2512207 C10.9881276 138.34638976 8.52771418 137.35514228 6.0625 136.3125 C4.7636084 135.77882813 4.7636084 135.77882813 3.43847656 135.234375 C-2.95409182 132.56142396 -9.06666792 129.59265979 -15 126 C-15 125.01 -15 124.02 -15 123 C-13.0859375 121.5625 -13.0859375 121.5625 -10.375 120 C8.26644921 108.82426121 8.26644921 108.82426121 20.828125 92.35546875 C21.19520482 89.93464823 21.19520482 89.93464823 19.9375 87.6875 C18.07024847 85.76092474 18.07024847 85.76092474 15.23046875 85.5546875 C10.91671954 86.14932766 9.13163587 88.32519929 6.375 91.4375 C-3.1934371 101.57089636 -15.55765167 111.51921722 -29 116 C-41.84715348 104.78633338 -51.68660163 92.86949302 -60 78 C-60.48984375 77.13375 -60.9796875 76.2675 -61.484375 75.375 C-62.625 73.25 -62.625 73.25 -64 70 C-62.66837695 66.00513085 -60.27578146 65.27831629 -56.75 63.4375 C-30.78601155 49.23072637 -12.34870868 26.53745674 0 0 Z M22.125 71.125 C19.68422975 73.83137067 19.68422975 73.83137067 20 77.1875 C20.78737233 80.29023828 20.78737233 80.29023828 24 82 C28.15402124 82.45857535 28.15402124 82.45857535 31.8125 80.75 C33.21205 78.68750526 33.85264484 77.50503771 34 75 C32.85213059 72.75643706 31.7904233 70.7904233 30 69 C26.3149652 68.38582753 25.18089886 68.86629215 22.125 71.125 Z " fill="#000000" transform="translate(287,350)"/>
<path d="M0 0 C3.95264872 1.5168393 7.21033322 3.35370416 10.75 5.6875 C46.91226283 28.53725281 96.10054033 32.25075104 137.75 32.1875 C138.55536194 32.18656342 139.36072388 32.18562683 140.19049072 32.18466187 C172.89183037 32.1029065 205.72617966 29.0544903 237 19 C237.82918945 18.73461426 238.65837891 18.46922852 239.51269531 18.19580078 C251.78403996 14.17819617 263.97130768 9.11967779 274.31640625 1.234375 C276 0 276 0 278 0 C278.02314315 8.31001875 278.04092518 16.62002408 278.05181217 24.93006706 C278.05703667 28.7885133 278.06412649 32.64693753 278.07543945 36.50537109 C278.08628368 40.2271153 278.09228011 43.9488383 278.09487724 47.67059708 C278.09672871 49.09240172 278.10034403 50.51420517 278.10573006 51.93600082 C278.11296072 53.9233055 278.11340823 55.91063139 278.11352539 57.89794922 C278.115746 59.03046112 278.11796661 60.16297302 278.12025452 61.32980347 C278 64 278 64 277 66 C275.24093343 66.32254531 273.4653728 66.5563018 271.6875 66.75 C262.4050562 68.17551816 254.04124947 72.02117444 247.51953125 78.87890625 C245.86437886 81.02753874 245.86437886 81.02753874 244.76171875 83.90234375 C242.89538341 88.1554854 241.25110391 91.81849638 236.9765625 94.06201172 C230.83940668 96.41824118 224.42786674 97.70469249 218 99 C216.26677515 99.37821064 214.53369739 99.75709613 212.80078125 100.13671875 C188.69240813 105.21034752 164.2224182 107.22082147 139.625 107.1875 C138.37910095 107.18659363 138.37910095 107.18659363 137.10803223 107.18566895 C96.93956339 107.10678274 37.70576784 105.23466548 6.625 75.3125 C1.79145873 70.19973025 -0.38179816 65.41475164 -0.34057617 58.35205078 C-0.34034958 57.05115509 -0.34012299 55.7502594 -0.33988953 54.40994263 C-0.32457301 53.00506235 -0.30892508 51.60018565 -0.29296875 50.1953125 C-0.2873677 48.74657634 -0.28310001 47.29783447 -0.28010559 45.84909058 C-0.26869677 42.05139245 -0.2392644 38.25404307 -0.20599365 34.45648193 C-0.17520678 30.5752026 -0.16158192 26.69386646 -0.14648438 22.8125 C-0.1143903 15.20817501 -0.06324272 7.60413653 0 0 Z M15.5625 43.625 C13.77012363 45.9383763 13.77012363 45.9383763 13.75 48.9375 C16.09638041 54.686132 21.52071755 56.40569499 26.9140625 58.6796875 C28.33609562 59.250919 29.76061987 59.81598595 31.1875 60.375 C31.87658447 60.65021484 32.56566895 60.92542969 33.27563477 61.20898438 C37.21066977 62.67575284 39.98450989 63.45147074 44 62 C46.57410937 59.68330157 46.97074044 58.46815301 47.1875 55 C46.2246778 51.70266387 46.2246778 51.70266387 42.8125 50 C41.21473518 49.31813292 39.60931025 48.65415262 38 48 C36.30037109 47.21882813 36.30037109 47.21882813 34.56640625 46.421875 C25.15736388 41.52259362 25.15736388 41.52259362 15.5625 43.625 Z " fill="#000000" transform="translate(44,215)"/>
<path d="M0 0 C4.56111192 4.28118808 8.40686789 8.49132576 8.6875 15.03515625 C8.20912693 21.66943538 4.95709204 25.91883119 0.2265625 30.40625 C-42.00574007 65.5869204 -115.7676723 63.71697718 -167.45751953 59.390625 C-200.22286721 56.40273058 -242.86544037 50.71609706 -266.3984375 25.03125 C-268.89109035 21.54301095 -269.62636322 18.22832717 -269.3359375 13.96875 C-267.84115654 5.94008112 -261.68846269 0.70484414 -255.3984375 -3.96875 C-194.3204709 -41.75186422 -57.69164254 -47.35600625 0 0 Z " fill="#000000" transform="translate(313.3984375,173.96875)"/>
<path d="M0 0 C3.31139661 1.28195151 6.01120962 2.58853717 8.875 4.6875 C61.65634538 40.33653983 147.91139822 37.83415252 208.00326538 26.3381958 C218.14172903 24.41241069 218.14172903 24.41241069 228.12109375 21.81640625 C231 21 231 21 235 21 C234.55531004 25.15043961 234.03432321 29.095536 232.9375 33.125 C231.85469601 36.7864895 231.85469601 36.7864895 232.15234375 39.7734375 C231.95845502 43.87990133 230.48903548 46.92215559 228.625 50.5 C228.09132813 51.54232788 228.09132813 51.54232788 227.546875 52.60571289 C215.62751484 75.20882712 195.13147428 96.45829251 171 106 C164.68662459 107.10085538 158.28558875 107.17143003 151.89453125 107.203125 C150.94512665 107.21013931 149.99572205 107.21715363 149.01754761 107.22438049 C145.94914995 107.24186019 142.88094571 107.24823829 139.8125 107.25 C138.76188385 107.25067474 137.7112677 107.25134949 136.6288147 107.25204468 C94.65124133 107.20928586 40.74032591 104.48080452 7 76 C1.84308462 70.47748241 -0.12825968 66.31025506 -0.11352539 58.69262695 C-0.11344986 57.39150467 -0.11337433 56.09038239 -0.11329651 54.74983215 C-0.10818985 53.3293148 -0.10297385 51.90879783 -0.09765625 50.48828125 C-0.09579091 49.03525338 -0.09436756 47.58222489 -0.09336853 46.12919617 C-0.08955246 42.30693828 -0.07972993 38.48471845 -0.06866455 34.66247559 C-0.05843087 30.76131709 -0.05386671 26.86015243 -0.04882812 22.95898438 C-0.03810686 15.30597224 -0.02104135 7.65299146 0 0 Z M15.625 44.1875 C13.7681805 46.83771061 13.7681805 46.83771061 14.0625 49.625 C15.35994091 52.9118503 16.95318904 54.46343322 20.09716797 56.07495117 C22.68647193 57.12149452 25.2759761 58.16526656 27.875 59.1875 C28.77347656 59.55552734 29.67195313 59.92355469 30.59765625 60.30273438 C31.47035156 60.65013672 32.34304687 60.99753906 33.2421875 61.35546875 C34.43110596 61.82956177 34.43110596 61.82956177 35.64404297 62.31323242 C38.25952115 63.07565109 40.29008013 63.27155479 43 63 C45.92743009 60.38072044 46.91213146 58.8611117 47.3125 54.9375 C45.839687 51.64120424 45.44639045 51.40908134 42.3125 50 C40.54303662 49.32970568 38.77198722 48.66359358 37 48 C34.58156844 46.92039077 32.16485614 45.83752695 29.75 44.75 C22.3883269 41.15808678 22.3883269 41.15808678 15.625 44.1875 Z " fill="#000000" transform="translate(44,302)"/>
<path d="M0 0 C3.02870791 1.47278665 5.82909575 3.15315181 8.66601562 4.96948242 C29.45617065 18.06849783 53.15297488 23.66845771 77.125 27.75 C78.29015137 27.94875732 79.45530273 28.14751465 80.65576172 28.35229492 C100.82655142 31.59815313 120.9085862 32.36346375 141.3125 32.625 C143.81837115 32.6632997 146.32423083 32.70235773 148.83007812 32.7421875 C154.88661481 32.83683886 160.94322408 32.92223915 167 33 C167.52746826 34.07161377 168.05493652 35.14322754 168.59838867 36.24731445 C169.30892466 37.68188134 170.01962693 39.11636588 170.73046875 40.55078125 C171.07589722 41.25368286 171.42132568 41.95658447 171.77722168 42.68078613 C177.9410925 55.09080812 185.75595608 65.73514141 195 76 C195.59296875 76.66515625 196.1859375 77.3303125 196.796875 78.015625 C203.78604802 85.41999641 212.50766012 91.44486038 221 97 C220.67 97.66 220.34 98.32 220 99 C218.03588867 99.63842773 218.03588867 99.63842773 215.41796875 100.18359375 C214.44013428 100.38766846 213.4622998 100.59174316 212.45483398 100.80200195 C206.64664938 101.93169668 200.83270148 103.00413342 195 104 C194.00162109 104.17241211 193.00324219 104.34482422 191.97460938 104.52246094 C157.15383379 110.16939049 117.76145544 109.9657004 83 104 C81.94022949 103.82307617 80.88045898 103.64615234 79.78857422 103.46386719 C55.39060877 99.27391554 21.01676543 92.9891262 4 73 C-0.84050395 65.59374588 -0.52226287 58.62671217 -0.390625 50 C-0.38315242 48.55412585 -0.3774643 47.10824147 -0.37347412 45.66235352 C-0.35829741 41.88099558 -0.31908655 38.1002651 -0.2746582 34.31915283 C-0.23353183 30.45113611 -0.21542629 26.58301671 -0.1953125 22.71484375 C-0.15258265 15.14294501 -0.08443052 7.57156086 0 0 Z M15.625 44.125 C13.75959311 46.87750661 13.75959311 46.87750661 13.9921875 49.94921875 C14.7449462 53.24200721 14.7449462 53.24200721 17.84375 55.01171875 C19.05074845 55.59527104 20.27055301 56.15286121 21.5 56.6875 C22.13494385 56.98076172 22.7698877 57.27402344 23.42407227 57.57617188 C25.26954248 58.41376566 27.13453907 59.20792729 29 60 C29.88558594 60.37769531 30.77117187 60.75539063 31.68359375 61.14453125 C36.40884273 62.93799663 39.99804765 63.42912924 45 62 C47.1610211 58.75846834 47.64247553 57.76307099 47 54 C42.82505423 49.90939657 37.81404604 47.9472319 32.5 45.75 C31.65824219 45.38648438 30.81648438 45.02296875 29.94921875 44.6484375 C29.13066406 44.30554688 28.31210938 43.96265625 27.46875 43.609375 C26.73076172 43.29967773 25.99277344 42.98998047 25.23242188 42.67089844 C21.14660592 41.44300887 18.8660296 41.22513141 15.625 44.125 Z " fill="#000000" transform="translate(44,389)"/>
<path d="M0 0 C0.93344742 0.23259521 1.86689484 0.46519043 2.82862854 0.70483398 C5.89398014 1.47163617 8.9548134 2.25505937 12.01586914 3.03881836 C14.17866722 3.58355767 16.34172276 4.12727563 18.50502014 4.67002869 C24.20022846 6.10193747 29.89172357 7.54810148 35.58258057 8.99719238 C41.28009103 10.44515631 46.9811469 11.87901498 52.68188477 13.31420898 C62.36903517 15.7543412 72.05024557 18.21703935 81.72891808 20.69056129 C86.80310407 21.98419684 91.88097682 23.25724654 96.97162914 24.48453236 C98.92028854 24.95454291 100.86712231 25.43210324 102.81385803 25.91001892 C104.9801861 26.44060275 107.14968428 26.95854668 109.32322693 27.45875549 C117.84146363 29.57303233 125.36153087 33.45225003 130.18383789 41.03491211 C135.2863753 50.81120227 132.8253794 60.13937961 130.17602539 70.19116211 C129.89823242 71.28299805 129.62043945 72.37483398 129.33422852 73.49975586 C127.28304867 81.47711555 127.28304867 81.47711555 126.11352539 83.81616211 C110.81079299 80.57012063 95.65729275 76.74891786 80.49435472 72.91158414 C76.93415868 72.01119703 73.37321048 71.11379397 69.81234741 70.21604919 C63.07535628 68.51709984 56.33900522 66.81562734 49.60289991 65.11316961 C41.25541509 63.00357986 32.90714005 60.89712399 24.55883789 58.79077148 C21.6012615 58.04453366 18.64369043 57.29827474 15.68612671 56.55198669 C14.9668652 56.37049464 14.24760369 56.18900258 13.50654638 56.00201076 C9.30475487 54.94168594 5.10309876 53.88082675 0.90158451 52.81940383 C-1.08255288 52.31815411 -3.06671529 51.81700354 -5.05088234 51.31587124 C-7.55887945 50.68236337 -10.06681496 50.04861156 -12.57468224 49.41458988 C-18.0872836 48.02208783 -23.60122193 46.63587024 -29.1206665 45.27072144 C-30.06145365 45.03763999 -31.00224079 44.80455854 -31.97153664 44.56441402 C-33.6896286 44.13954575 -35.40821164 43.71665603 -37.12738609 43.29618931 C-42.66586263 41.9264681 -42.66586263 41.9264681 -44.88647461 40.81616211 C-43.62996576 28.55436883 -41.55998754 11.97958363 -32.08178711 3.31225586 C-21.76039577 -3.72171724 -11.66769661 -3.0339879 0 0 Z " fill="#000000" transform="translate(334.886474609375,296.183837890625)"/>
<path d="M0 0 C0.66 0 1.32 0 2 0 C3.08693923 1.75235078 4.09294271 3.5550745 5.0625 5.375 C12.1048561 17.68104732 22.07715903 26.99228701 35 33 C33.76796431 36.69610708 32.90566889 36.84128119 29.5625 38.625 C17.6894009 45.5015738 8.32938767 55.86867363 2 68 C-1.69610708 66.76796431 -1.84128119 65.90566889 -3.625 62.5625 C-10.5015738 50.6894009 -20.86867363 41.32938767 -33 35 C-33 34.34 -33 33.68 -33 33 C-31.24764922 31.91306077 -29.4449255 30.90705729 -27.625 29.9375 C-15.31895268 22.8951439 -6.00771299 12.92284097 0 0 Z " fill="#000000" transform="translate(409,60)"/>
<path d="M0 0 C9.405 2.475 9.405 2.475 19 5 C18.33952161 10.28382708 17.67618827 14.74223045 16.32592773 19.78320312 C16.15997101 20.40859985 15.99401428 21.03399658 15.82302856 21.67834473 C15.28152988 23.71401316 14.7326483 25.74760785 14.18359375 27.78125 C13.80341779 29.20458886 13.42371032 30.62805293 13.04444885 32.05163574 C12.05122008 35.77477863 11.05168826 39.49620022 10.05078125 43.21728516 C9.02804799 47.02403516 8.01135816 50.83239816 6.99414062 54.640625 C5.00196558 62.09533101 3.00312108 69.54822687 1 77 C-3.39844322 78.37344385 -6.92504555 77.24307502 -11.25 76.0625 C-11.99507813 75.86720703 -12.74015625 75.67191406 -13.5078125 75.47070312 C-15.34079386 74.98895802 -17.17071818 74.49560775 -19 74 C-18.39604207 66.73024125 -16.86876263 59.98615274 -14.98046875 52.94921875 C-14.68062576 51.81402298 -14.38078278 50.67882721 -14.07185364 49.50923157 C-13.43859406 47.11739796 -12.80219864 44.72639262 -12.1628418 42.33618164 C-11.19382893 38.71117605 -10.23577825 35.08340791 -9.27929688 31.45507812 C-8.65950453 29.11961897 -8.03908213 26.78432692 -7.41796875 24.44921875 C-7.13551804 23.38007736 -6.85306732 22.31093597 -6.5620575 21.20939636 C-4.63743539 14.03871445 -2.40324602 7.02515089 0 0 Z " fill="#000000" transform="translate(401,222)"/>
<path d="M0 0 C3.59103005 1.19701002 3.98322593 2.11901449 5.9375 5.25 C9.67053115 11.18303085 13.36130335 15.52640356 19.0625 19.6875 C20.10535156 20.45449219 21.14820313 21.22148438 22.22265625 22.01171875 C24.12541617 23.37389146 26.05292946 24.70195297 28 26 C28 26.66 28 27.32 28 28 C26.39458177 29.08328221 24.73764003 30.09050517 23.0625 31.0625 C14.21874448 36.56427079 8.10023194 42.94059149 3.19140625 52.12890625 C2.79824219 52.74636719 2.40507812 53.36382812 2 54 C1.34 54 0.68 54 0 54 C-1.06117255 52.41427057 -2.0474337 50.77825208 -3 49.125 C-8.85559484 39.68558674 -16.48135662 32.65600549 -26 27 C-23.75428672 24.54153494 -21.21595308 22.67582661 -18.51879883 20.73852539 C-11.55959496 15.68715306 -6.6400208 10.3192979 -2 3 C-1.34 2.01 -0.68 1.02 0 0 Z " fill="#000000" transform="translate(223,16)"/>
</svg>
