<?xml version="1.0" encoding="UTF-8"?>
<svg version="1.1" xmlns="http://www.w3.org/2000/svg" width="512" height="512">
<path d="M0 0 C159.06 0 318.12 0 482 0 C482.061875 55.31625 482.12375 110.6325 482.1875 167.625 C482.21481201 185.11193848 482.24212402 202.59887695 482.27026367 220.61572266 C482.28381348 241.91674805 482.28381348 241.91674805 482.28633118 251.87850952 C482.28913393 258.85827652 482.30016016 265.83797186 482.31672668 272.81771851 C482.33579482 280.86329779 482.34451437 288.9088081 482.34033485 296.95441016 C482.33852407 301.07192029 482.34143665 305.18927618 482.35764539 309.30675817 C482.37220845 313.02873567 482.37299375 316.75044937 482.36270332 320.47243881 C482.36082432 322.45838426 482.37378546 324.44432654 482.38724232 326.43022728 C482.3782834 328.20433165 482.3782834 328.20433165 482.36914349 330.0142765 C482.37085223 331.54189139 482.37085223 331.54189139 482.37259549 333.10036719 C481.66970477 338.57044145 479.15587366 342.32565903 475 345.8125 C474.319375 346.39644531 473.63875 346.98039062 472.9375 347.58203125 C469.055338 350.42321029 465.15299942 350.1427413 460.55733013 350.13142776 C459.40505172 350.13450672 459.40505172 350.13450672 458.22949496 350.13764787 C455.63431929 350.14333913 453.03919634 350.14185801 450.4440155 350.14044189 C448.5730425 350.14302431 446.70207006 350.14603712 444.83109838 350.1494453 C439.67314284 350.15753302 434.51520121 350.15930585 429.35724008 350.16004276 C423.80088512 350.16189023 418.24453742 350.16943598 412.68818665 350.17617798 C400.53132532 350.18977411 388.37446729 350.19578793 376.21759963 350.20018864 C368.63118847 350.20294873 361.04477859 350.20718564 353.4583683 350.21169281 C332.46615659 350.22388684 311.47394556 350.23422149 290.48173046 350.2375679 C289.1239721 350.23778954 287.76621375 350.23801132 286.40845539 350.23823325 C285.04739546 350.23845389 283.68633553 350.23867438 282.3252756 350.2388947 C279.59469871 350.23933726 276.86412181 350.23978437 274.13354492 350.24023438 C273.45651955 350.24034377 272.77949418 350.24045316 272.08195289 350.24056586 C250.12410402 350.24419736 228.16628815 350.26012076 206.20845192 350.28342474 C183.00012759 350.30801089 159.79182139 350.32173343 136.58348161 350.32293582 C123.92951389 350.32385372 111.27558937 350.32963489 98.62163353 350.34775543 C87.84820095 350.36312838 77.07482492 350.36829348 66.30138346 350.36001733 C60.80197805 350.35610095 55.30268664 350.35708852 49.80329514 350.37107468 C44.77173406 350.38375434 39.74037332 350.38266854 34.70881275 350.37048396 C32.88579103 350.36851664 31.06275541 350.37165282 29.23975327 350.38032833 C26.76632146 350.3913566 24.29360472 350.38397857 21.82019329 350.3719368 C20.75256348 350.38332959 20.75256348 350.38332959 19.66336539 350.39495254 C14.24241537 350.33777522 10.18529432 349.01252532 6.171875 345.31640625 C5.46804687 344.44822266 5.46804687 344.44822266 4.75 343.5625 C4.27046875 342.98628906 3.7909375 342.41007812 3.296875 341.81640625 C0.49955187 337.89846873 -0.24970297 335.10138973 -0.24609566 330.26037216 C-0.2500774 329.08161766 -0.25405914 327.90286316 -0.25816154 326.68838882 C-0.25233622 325.39305096 -0.24651089 324.09771309 -0.24050903 322.76312256 C-0.24138385 321.37709474 -0.24313761 319.99106724 -0.24569702 318.6050415 C-0.25019099 314.78469392 -0.24214521 310.96445807 -0.23214546 307.14412469 C-0.22342765 302.96551027 -0.22633366 298.7869012 -0.2277813 294.60828018 C-0.22884574 286.49256803 -0.21960017 278.37690005 -0.20677864 270.26119925 C-0.1923947 260.87611412 -0.19079002 251.49105562 -0.18920898 242.10595703 C-0.17870264 217.32063101 -0.15078049 192.53531484 -0.125 167.75 C-0.08375 112.3925 -0.0425 57.035 0 0 Z M156 17 C153.42409226 21.64474371 153.71774558 26.32269592 153.74121094 31.484375 C153.7377063 32.43292358 153.73420166 33.38147217 153.73059082 34.35876465 C153.72179981 37.48925123 153.72761345 40.61951118 153.734375 43.75 C153.7330276 45.92806034 153.73108643 48.10612038 153.72857666 50.28417969 C153.72562896 54.84703436 153.72991173 59.40981069 153.73925781 63.97265625 C153.75065208 69.8203556 153.74409072 75.66787135 153.73211288 81.51556396 C153.72488478 86.01254662 153.7271866 90.50948576 153.73236847 95.00646973 C153.73370233 97.16263857 153.73206647 99.31881136 153.72740936 101.47497559 C153.72232861 104.48863178 153.73007635 107.50199092 153.74121094 110.515625 C153.73716248 111.40616577 153.73311401 112.29670654 153.72894287 113.2142334 C153.76092996 119.35108888 153.76092996 119.35108888 156 125 C162.25781469 128.83581536 169.1457291 130.81844612 176.125 132.9765625 C177.29362579 133.34395035 178.46225159 133.7113382 179.66629028 134.08985901 C182.79779179 135.07284323 185.9310514 136.04991383 189.06546783 137.02355576 C192.301095 138.02950922 195.53498991 139.04100167 198.76904297 140.05200195 C202.61864919 141.25517635 206.46844114 142.45773301 210.31930542 143.65687561 C217.43805488 145.87607985 224.54321383 148.13088162 231.6328125 150.44140625 C233.80572464 151.14387004 235.97896701 151.84530085 238.15234375 152.54632568 C240.07085009 153.1698996 241.98473023 153.80765073 243.8984375 154.44580078 C251.89610239 157.13041896 251.89610239 157.13041896 260 156 C263.40574295 152.99970264 264.14322159 148.72113358 265.125 144.4375 C265.38047607 143.32290405 265.38047607 143.32290405 265.64111328 142.18579102 C271.41399598 115.11870221 266.23211433 86.23148564 251.3125 62.875 C233.62200335 37.85024755 209.86760366 20.80720462 179.31567383 15.52490234 C167.05455185 12.97046786 167.05455185 12.97046786 156 17 Z M321 14 C321 18.95 321 23.9 321 29 C363.24 29 405.48 29 449 29 C449 24.05 449 19.1 449 14 C406.76 14 364.52 14 321 14 Z M123.29296875 36.26171875 C94.75155899 39.0277238 68.36477267 51.94229005 49.53125 73.875 C31.86237144 96.62670664 22.07363626 124.63608717 25.49609375 153.59765625 C28.62382011 176.79849825 37.70264851 196.34392515 53 214 C53.65484375 214.75667969 54.3096875 215.51335937 54.984375 216.29296875 C73.79207055 236.42684796 100.77360671 246.18660245 127.65234375 248.28515625 C154.3601855 249.00193613 179.88048572 239.37750212 200 222 C200.74636719 221.39800781 201.49273437 220.79601562 202.26171875 220.17578125 C215.44857511 209.19824113 228.21011085 190.94137016 232 174 C232.21081851 170.10540926 232.21081851 170.10540926 231 167 C227.93822462 164.16245773 224.7329306 163.06866334 220.78881836 161.8269043 C219.86811806 161.53346634 219.86811806 161.53346634 218.92881775 161.23410034 C216.90144128 160.58999582 214.87074911 159.95709948 212.83984375 159.32421875 C211.41112467 158.87274017 209.98262587 158.42056399 208.55433655 157.96772766 C204.78430076 156.77450509 201.01136146 155.59073551 197.23773193 154.40893555 C193.46856895 153.22679034 189.70215693 152.03595233 185.93554688 150.84570312 C180.87176192 149.24619471 175.80659531 147.65122836 170.73937416 146.06263924 C165.41370836 144.39298511 160.09166749 142.71387455 154.78173828 140.99462891 C153.89144424 140.70771683 153.00115021 140.42080475 152.08387756 140.12519836 C150.51397634 139.6179851 148.94549088 139.10635499 147.37889099 138.58903503 C144.03205267 137.51106355 141.56611545 137 138 137 C138.01110306 135.80840775 138.02220612 134.61681549 138.03364563 133.38911438 C138.13498116 122.16233776 138.20994616 110.93565386 138.25906086 99.70852375 C138.28516017 93.93642944 138.32056517 88.16470417 138.37719727 82.39282227 C138.43150385 76.82313088 138.46141801 71.25379457 138.47438622 65.68385887 C138.48362843 63.55833534 138.50167637 61.43283135 138.52865028 59.30745888 C138.56492194 56.33125362 138.56994605 53.3565175 138.56762695 50.38012695 C138.58560333 49.50043243 138.60357971 48.62073792 138.62210083 47.71438599 C138.58488893 43.30399916 138.41706468 41.54172249 135.64103699 37.93595886 C131.46651671 34.87591102 128.26241368 35.9108728 123.29296875 36.26171875 Z M321 59 C321 63.95 321 68.9 321 74 C363.24 74 405.48 74 449 74 C449 69.05 449 64.1 449 59 C406.76 59 364.52 59 321 59 Z M321 107 C321 111.95 321 116.9 321 122 C363.24 122 405.48 122 449 122 C449 117.05 449 112.1 449 107 C406.76 107 364.52 107 321 107 Z M401 161 C401 216.77 401 272.54 401 330 C419.48 330 437.96 330 457 330 C457 274.23 457 218.46 457 161 C438.52 161 420.04 161 401 161 Z M328 201 C328 243.57 328 286.14 328 330 C346.15 330 364.3 330 383 330 C383 287.43 383 244.86 383 201 C364.85 201 346.7 201 328 201 Z M255 228 C255 261.66 255 295.32 255 330 C273.15 330 291.3 330 310 330 C310 296.34 310 262.68 310 228 C291.85 228 273.7 228 255 228 Z M33 271 C33 275.95 33 280.9 33 286 C75.24 286 117.48 286 161 286 C161 281.05 161 276.1 161 271 C118.76 271 76.52 271 33 271 Z M33 316 C33 320.62 33 325.24 33 330 C75.24 330 117.48 330 161 330 C161 325.38 161 320.76 161 316 C118.76 316 76.52 316 33 316 Z " fill="#000000" transform="translate(15,111)"/>
<path d="M0 0 C1.15227841 -0.00307895 1.15227841 -0.00307895 2.32783517 -0.0062201 C4.92301084 -0.01191136 7.51813379 -0.01043024 10.11331463 -0.00901413 C11.98428763 -0.01159654 13.85526008 -0.01460936 15.72623175 -0.01801753 C20.88418729 -0.02610525 26.04212892 -0.02787809 31.20009005 -0.028615 C36.75644501 -0.03046246 42.31279271 -0.03800821 47.86914349 -0.04475021 C60.02600481 -0.05834635 72.18286284 -0.06436016 84.3397305 -0.06876087 C91.92614166 -0.07152097 99.51255154 -0.07575788 107.09896183 -0.08026505 C128.09117354 -0.09245907 149.08338457 -0.10279372 170.07559967 -0.10614014 C171.43335803 -0.10636177 172.79111638 -0.10658355 174.14887474 -0.10680549 C175.50993467 -0.10702613 176.8709946 -0.10724661 178.23205453 -0.10746694 C180.96263142 -0.10790949 183.69320832 -0.10835661 186.42378521 -0.10880661 C187.10081058 -0.108916 187.77783595 -0.10902539 188.47537724 -0.1091381 C210.43322611 -0.11276959 232.39104198 -0.128693 254.34887821 -0.15199697 C277.55720254 -0.17658313 300.76550874 -0.19030567 323.97384852 -0.19150805 C336.62781624 -0.19242595 349.28174076 -0.19820712 361.9356966 -0.21632767 C372.70912918 -0.23170061 383.48250521 -0.23686572 394.25594667 -0.22858956 C399.75535208 -0.22467318 405.25464349 -0.22566075 410.754035 -0.23964691 C415.78559607 -0.25232658 420.81695681 -0.25124077 425.84851738 -0.2390562 C427.6715391 -0.23708887 429.49457473 -0.24022506 431.31757686 -0.24890056 C433.79100868 -0.25992883 436.26372541 -0.2525508 438.73713684 -0.24050903 C439.80476665 -0.25190182 439.80476665 -0.25190182 440.89396474 -0.26352477 C446.50964927 -0.2042935 450.52137866 1.23680876 454.63936138 5.06892776 C455.21041607 5.74955276 455.78147076 6.43017776 456.36983013 7.13142776 C456.95377544 7.81205276 457.53772076 8.49267776 458.13936138 9.19392776 C465.22580771 18.87678556 460.55733013 36.69368667 460.55733013 45.13142776 C301.49733013 45.13142776 142.43733013 45.13142776 -21.44266987 45.13142776 C-21.44266987 11.35521809 -21.44266987 11.35521809 -16.50516987 6.04939651 C-15.82454487 5.47834183 -15.14391987 4.90728714 -14.44266987 4.31892776 C-13.76204487 3.73498245 -13.08141987 3.15103714 -12.38016987 2.54939651 C-8.49800787 -0.29178253 -4.59566929 -0.01131353 0 0 Z M11.55733013 11.13142776 C11.55733013 16.08142776 11.55733013 21.03142776 11.55733013 26.13142776 C24.09733013 26.13142776 36.63733013 26.13142776 49.55733013 26.13142776 C49.55733013 21.18142776 49.55733013 16.23142776 49.55733013 11.13142776 C37.01733013 11.13142776 24.47733013 11.13142776 11.55733013 11.13142776 Z " fill="#000000" transform="translate(36.44266986846924,50.86857223510742)"/>
<path d="M0 0 C0.00586624 1.17097733 0.01173248 2.34195465 0.01777649 3.54841614 C0.07492597 14.5700104 0.14764664 25.59140587 0.23571491 36.61279774 C0.28049135 42.27936705 0.31973138 47.94586325 0.34643555 53.61254883 C0.372396 59.07860351 0.4127467 64.54437792 0.46318626 70.01025963 C0.4799042 72.09826872 0.49138769 74.18632634 0.49761391 76.27439308 C0.5072015 79.19340197 0.53519638 82.1116858 0.56762695 85.03051758 C0.56619186 85.89870117 0.56475677 86.76688477 0.5632782 87.66137695 C0.48279115 91.98612372 0.48279115 91.98612372 2.39007568 95.68690681 C4.4038636 97.32940092 6.22076232 97.95886317 8.69799805 98.74243164 C10.13592712 99.20468895 10.13592712 99.20468895 11.60290527 99.67628479 C12.64531372 100.00096237 13.68772217 100.32563995 14.76171875 100.66015625 C15.84868042 101.00662704 16.93564209 101.35309784 18.05554199 101.71006775 C21.59679037 102.83639248 25.1420319 103.94953725 28.6875 105.0625 C31.10677228 105.82930373 33.52579878 106.59688333 35.94458008 107.36523438 C42.95892236 109.59003453 49.97837064 111.79831838 57 114 C57.9600293 114.30105652 58.92005859 114.60211304 59.90917969 114.91229248 C70.01678431 118.08034659 70.01678431 118.08034659 80.13354492 121.21899414 C81.29990479 121.57985107 82.46626465 121.94070801 83.66796875 122.3125 C85.15719849 122.77076172 85.15719849 122.77076172 86.67651367 123.23828125 C89 124 89 124 91 125 C85.12090373 144.22776897 69.47586708 160.19987654 52.453125 170.18359375 C30.02184933 181.98285075 5.03250605 185.21584079 -19.3125 177.75 C-30.80575694 173.9873765 -40.54425828 168.49888883 -50 161 C-50.77085938 160.39542969 -51.54171875 159.79085937 -52.3359375 159.16796875 C-70.36705802 144.14203498 -80.61403559 121.61316798 -82.79467773 98.48193359 C-84.44798518 74.09211602 -77.40570009 50.0364541 -61.26171875 31.48046875 C-60.51535156 30.66191406 -59.76898438 29.84335938 -59 29 C-58.32582031 28.23300781 -57.65164062 27.46601563 -56.95703125 26.67578125 C-43.00680891 11.6786379 -20.75746594 0 0 0 Z " fill="#000000" transform="translate(139,162)"/>
<path d="M0 0 C15.04107381 0 27.12253073 4.69418989 40 12 C40.85207031 12.48339844 41.70414063 12.96679688 42.58203125 13.46484375 C61.75988807 25.38621421 75.19585184 45.07506584 81.2578125 66.640625 C84.52353284 81.42230656 84.19633185 95.11592967 82 110 C76.98606097 109.40309051 72.47169124 108.34341777 67.64355469 106.79101562 C66.9450943 106.56814377 66.24663391 106.34527191 65.52700806 106.11564636 C63.24021938 105.38450062 60.95606963 104.64545584 58.671875 103.90625 C57.07496457 103.39392326 55.47789572 102.88209007 53.88067627 102.37072754 C49.69142187 101.02802706 45.50437331 99.67857306 41.31774902 98.32769775 C37.05171534 96.95256862 32.78356891 95.58403009 28.515625 94.21484375 C5.03568074 86.67856025 5.03568074 86.67856025 0 85 C0 56.95 0 28.9 0 0 Z " fill="#000000" transform="translate(184,141)"/>
<path d="M0 0 C8.58 0 17.16 0 26 0 C26 46.2 26 92.4 26 140 C17.75 140 9.5 140 1 140 C0 139 0 139 -0.12304783 136.70613766 C-0.12212604 135.68202565 -0.12120424 134.65791365 -0.12025452 133.60276794 C-0.12162918 132.43182587 -0.12300385 131.26088379 -0.12442017 130.05445862 C-0.12082489 128.75830124 -0.11722961 127.46214386 -0.11352539 126.12670898 C-0.11324352 124.75712079 -0.11340125 123.38753244 -0.1139679 122.01794434 C-0.11425588 118.28877052 -0.10835909 114.55962859 -0.10139394 110.83046222 C-0.09516047 106.93735587 -0.09455661 103.04424887 -0.09336853 99.15113831 C-0.09025519 91.77401854 -0.08204178 84.39691351 -0.07201904 77.01980025 C-0.06085797 68.62332457 -0.05534747 60.22684821 -0.05032361 51.83036697 C-0.03985916 34.55356798 -0.02151366 17.2767893 0 0 Z " fill="#000000" transform="translate(431,287)"/>
<path d="M0 0 C8.25 0 16.5 0 25 0 C25 33 25 66 25 100 C16.75 100 8.5 100 0 100 C0 67 0 34 0 0 Z " fill="#000000" transform="translate(358,327)"/>
<path d="M0 0 C8.58 0 17.16 0 26 0 C26 24.09 26 48.18 26 73 C17.42 73 8.84 73 0 73 C0 48.91 0 24.82 0 0 Z " fill="#000000" transform="translate(284,354)"/>
</svg>
