<?xml version="1.0" encoding="UTF-8"?>
<svg version="1.1" xmlns="http://www.w3.org/2000/svg" width="512" height="512">
<path d="M0 0 C105.6 0 211.2 0 320 0 C320 153.12 320 306.24 320 464 C188 464 56 464 -80 464 C-80 337.28 -80 210.56 -80 80 C-53.6 80 -27.2 80 0 80 C0 53.6 0 27.2 0 0 Z M40 16 C40 21.28 40 26.56 40 32 C32.08 32 24.16 32 16 32 C15.95368533 36.35615174 15.91398542 40.71142368 15.89013672 45.06762695 C15.88017817 46.54454468 15.86660639 48.02144322 15.84912109 49.49829102 C15.70031897 62.40468656 15.58677224 74.47001131 24 85 C31.09115568 91.96008072 37.94487854 94.64242706 47.625 95.9375 C53.94581601 96.83002263 57.44542913 97.92954256 61.60546875 102.9296875 C63.73017983 107.60762282 63.57368006 112.22962677 63.6875 117.3125 C63.72166016 118.33923828 63.75582031 119.36597656 63.79101562 120.42382812 C63.87323409 122.94910963 63.94246936 125.4740554 64 128 C60.45715903 127.94785974 56.91670685 127.8527229 53.375 127.75 C51.87646484 127.72873047 51.87646484 127.72873047 50.34765625 127.70703125 C44.29231843 127.50652338 40.61374555 127.03608961 36 123 C33.03820575 119.11902822 32.85506303 117.13037815 32 112 C27.05 112 22.1 112 17 112 C16.2235145 120.38604341 19.2917988 126.66946338 24.3125 133.3125 C29.09141021 138.09141021 33.35188423 140.67037685 40 142 C40 147.94 40 153.88 40 160 C45.28 160 50.56 160 56 160 C56 154.72 56 149.44 56 144 C63.92 144 71.84 144 80 144 C80.04631467 139.64384826 80.08601458 135.28857632 80.10986328 130.93237305 C80.11982183 129.45545532 80.13339361 127.97855678 80.15087891 126.50170898 C80.29968103 113.59531344 80.41322776 101.52998869 72 91 C64.90884432 84.03991928 58.05512146 81.35757294 48.375 80.0625 C42.05418399 79.16997737 38.55457087 78.07045744 34.39453125 73.0703125 C32.26982017 68.39237718 32.42631994 63.77037323 32.3125 58.6875 C32.26125977 57.14739258 32.26125977 57.14739258 32.20898438 55.57617188 C32.12676591 53.05089037 32.05753064 50.5259446 32 48 C35.54284097 48.05214026 39.08329315 48.1472771 42.625 48.25 C43.62402344 48.26417969 44.62304688 48.27835938 45.65234375 48.29296875 C51.70768157 48.49347662 55.38625445 48.96391039 60 53 C62.96179425 56.88097178 63.14493697 58.86962185 64 64 C68.95 64 73.9 64 79 64 C79.7764855 55.61395659 76.7082012 49.33053662 71.6875 42.6875 C66.90858979 37.90858979 62.64811577 35.32962315 56 34 C56 28.06 56 22.12 56 16 C50.72 16 45.44 16 40 16 Z M224 16 C224 21.28 224 26.56 224 32 C229.28 32 234.56 32 240 32 C240 26.72 240 21.44 240 16 C234.72 16 229.44 16 224 16 Z M256 16 C256 21.28 256 26.56 256 32 C261.28 32 266.56 32 272 32 C272 26.72 272 21.44 272 16 C266.72 16 261.44 16 256 16 Z M288 16 C288 21.28 288 26.56 288 32 C293.28 32 298.56 32 304 32 C304 26.72 304 21.44 304 16 C298.72 16 293.44 16 288 16 Z M192 48 C192 53.28 192 58.56 192 64 C228.96 64 265.92 64 304 64 C304 58.72 304 53.44 304 48 C267.04 48 230.08 48 192 48 Z M-64 96 C-64 101.28 -64 106.56 -64 112 C-58.72 112 -53.44 112 -48 112 C-48 106.72 -48 101.44 -48 96 C-53.28 96 -58.56 96 -64 96 Z M304.72259521 95.75927734 C303.87568115 95.92756042 303.02876709 96.09584351 302.15618896 96.26922607 C301.23549622 96.45624084 300.31480347 96.64325562 299.36621094 96.8359375 C298.39026978 97.03100891 297.41432861 97.22608032 296.40881348 97.42706299 C293.18325795 98.07273141 289.95882648 98.72384242 286.734375 99.375 C284.49813446 99.82374015 282.26182574 100.27214069 280.02545166 100.72021484 C274.13932841 101.9004941 268.25414379 103.08539057 262.36914062 104.27124023 C256.36383969 105.48048358 250.35766546 106.68537273 244.3515625 107.890625 C232.56684793 110.25614802 220.78312006 112.62654814 209 115 C213.52513045 120.36131852 213.52513045 120.36131852 218.34326172 125.45678711 C218.92341034 126.0368602 219.50355896 126.61693329 220.10128784 127.21458435 C220.70465973 127.81279495 221.30803162 128.41100555 221.9296875 129.02734375 C222.56488312 129.66112442 223.20007874 130.29490509 223.85452271 130.94789124 C225.85898716 132.94681406 227.86692214 134.94220784 229.875 136.9375 C231.24502389 138.30250133 232.61481774 139.6677336 233.984375 141.03320312 C237.32026543 144.35814211 240.65927036 147.67992353 244 151 C242.4402101 154.74184754 240.13267827 157.10902778 237.27490234 159.95214844 C236.79668533 160.4306575 236.31846832 160.90916656 235.82575989 161.4021759 C234.25051517 162.97603195 232.66831465 164.54269293 231.0859375 166.109375 C229.98976787 167.20181286 228.89404019 168.29469434 227.79873657 169.38800049 C224.91960112 172.25951242 222.03450944 175.12496654 219.14813232 177.98919678 C216.20190185 180.91494126 213.26134931 183.84638014 210.3203125 186.77734375 C204.55241412 192.52381482 198.77821036 198.26389806 193 204 C189.46760977 202.49315032 187.2037834 200.44633388 184.50683594 197.73388672 C183.62622498 196.85312469 182.74561401 195.97236267 181.83831787 195.06491089 C180.88689569 194.10327649 179.93558397 193.1415328 178.984375 192.1796875 C178.00403871 191.19561893 177.02325832 190.21199258 176.04205322 189.22879028 C173.46645533 186.64557286 170.89692143 184.05640488 168.32861328 181.46594238 C165.70448933 178.8213238 163.07466229 176.1823899 160.4453125 173.54296875 C155.2912833 168.36751928 150.14364843 163.18576878 145 158 C142.17615633 159.28596263 140.12431572 160.62707571 137.93743896 162.822052 C137.35977783 163.39696381 136.7821167 163.97187561 136.18695068 164.56420898 C135.56548157 165.19286865 134.94401245 165.82152832 134.30371094 166.46923828 C133.63988403 167.13277313 132.97605713 167.79630798 132.29211426 168.47994995 C130.10142667 170.6720297 127.91790636 172.87110625 125.734375 175.0703125 C124.21595163 176.59246639 122.69708579 178.11417902 121.17779541 179.63546753 C117.1818037 183.63909255 113.19185471 187.64868759 109.203125 191.6595459 C105.13122945 195.75190629 101.05366074 199.83860529 96.9765625 203.92578125 C88.97880529 211.94498305 80.98741897 219.97050181 73 228 C69.46760977 226.49315032 67.2037834 224.44633388 64.50683594 221.73388672 C63.62622498 220.85312469 62.74561401 219.97236267 61.83831787 219.06491089 C60.88689569 218.10327649 59.93558397 217.1415328 58.984375 216.1796875 C58.00403871 215.19561893 57.02325832 214.21199258 56.04205322 213.22879028 C53.46645533 210.64557286 50.89692143 208.05640488 48.32861328 205.46594238 C45.70448933 202.8213238 43.07466229 200.1823899 40.4453125 197.54296875 C35.2912833 192.36751928 30.14364843 187.18576878 25 182 C21.75478079 183.4253282 19.59846085 185.15405742 17.10223389 187.65725708 C16.33946136 188.41728027 15.57668884 189.17730347 14.790802 189.96035767 C13.96361664 190.79473358 13.13643127 191.6291095 12.28417969 192.48876953 C11.40577423 193.36688293 10.52736877 194.24499634 9.62234497 195.14971924 C7.21818389 197.55503431 4.81854464 199.9646992 2.42080593 202.37640619 C-0.08736128 204.89708199 -2.60119926 207.41208935 -5.11444092 209.92770386 C-9.87115086 214.69062818 -14.62273986 219.45862747 -19.37250972 224.22847164 C-24.7808817 229.65920388 -30.19493866 235.08425334 -35.60948038 240.50883317 C-46.7459909 251.66624475 -57.87534142 262.83077048 -69 274 C-68.11032656 275.08839774 -67.21288426 276.17044608 -66.3125 277.25 C-65.81363281 277.85328125 -65.31476563 278.4565625 -64.80078125 279.078125 C-62.61308067 281.50453961 -62.61308067 281.50453961 -58 285 C-17.905 244.905 -17.905 244.905 23 204 C26.74049738 205.87024869 28.60348271 207.35982457 31.49316406 210.26611328 C32.37377502 211.14687531 33.25438599 212.02763733 34.16168213 212.93508911 C35.11310431 213.89672351 36.06441603 214.8584672 37.015625 215.8203125 C37.99596129 216.80438107 38.97674168 217.78800742 39.95794678 218.77120972 C42.53354467 221.35442714 45.10307857 223.94359512 47.67138672 226.53405762 C50.29551067 229.1786762 52.92533771 231.8176101 55.5546875 234.45703125 C60.7087167 239.63248072 65.85635157 244.81423122 71 250 C73.82384367 248.71403737 75.87568428 247.37292429 78.06256104 245.177948 C78.64022217 244.60303619 79.2178833 244.02812439 79.81304932 243.43579102 C80.43451843 242.80713135 81.05598755 242.17847168 81.69628906 241.53076172 C82.36011597 240.86722687 83.02394287 240.20369202 83.70788574 239.52005005 C85.89857333 237.3279703 88.08209364 235.12889375 90.265625 232.9296875 C91.78404837 231.40753361 93.30291421 229.88582098 94.82220459 228.36453247 C98.8181963 224.36090745 102.80814529 220.35131241 106.796875 216.3404541 C110.86877055 212.24809371 114.94633926 208.16139471 119.0234375 204.07421875 C127.02119471 196.05501695 135.01258103 188.02949819 143 180 C146.53239023 181.50684968 148.7962166 183.55366612 151.49316406 186.26611328 C152.37377502 187.14687531 153.25438599 188.02763733 154.16168213 188.93508911 C155.11310431 189.89672351 156.06441603 190.8584672 157.015625 191.8203125 C157.99596129 192.80438107 158.97674168 193.78800742 159.95794678 194.77120972 C162.53354467 197.35442714 165.10307857 199.94359512 167.67138672 202.53405762 C170.29551067 205.1786762 172.92533771 207.8176101 175.5546875 210.45703125 C180.7087167 215.63248072 185.85635157 220.81423122 191 226 C195.13625009 224.36934355 197.89956599 221.36776548 200.96191406 218.26513672 C201.5477124 217.67963043 202.13351074 217.09412415 202.73706055 216.49087524 C204.66802839 214.55851644 206.59181947 212.61917484 208.515625 210.6796875 C209.85468611 209.33689544 211.19419009 207.99454487 212.53411865 206.65261841 C216.05664429 203.12246283 219.57312203 199.58634194 223.08837891 196.0489502 C226.67768551 192.43917149 230.27267256 188.83505985 233.8671875 185.23046875 C240.91703318 178.15918442 247.96050337 171.08158587 255 164 C258.04536166 165.36017069 260.12934217 166.88780086 262.4675293 169.25634766 C263.1246843 169.91688141 263.78183929 170.57741516 264.45890808 171.25796509 C265.1569606 171.96947723 265.85501312 172.68098938 266.57421875 173.4140625 C267.66087578 174.50852188 267.66087578 174.50852188 268.76948547 175.62509155 C271.08028849 177.95369813 273.38428721 180.2888876 275.6875 182.625 C278.00229515 184.96736079 280.31851229 187.30826978 282.63764954 189.64633179 C284.08048638 191.10148267 285.52064278 192.55929685 286.95793152 194.01992798 C287.60563004 194.67415741 288.25332855 195.32838684 288.9206543 196.00244141 C289.49261032 196.58265045 290.06456635 197.1628595 290.65385437 197.76065063 C291.81765119 199.11288692 291.81765119 199.11288692 293 199 C295.6121988 186.03160884 298.22026444 173.06239407 300.82302856 160.09210587 C302.03167191 154.06978044 303.24174744 148.04775014 304.45507812 142.02636719 C305.62553439 136.21748628 306.7922519 130.40786598 307.95635986 124.59770966 C308.40157463 122.37903744 308.84814536 120.16063689 309.29608154 117.94251251 C309.9223131 114.84030881 310.54375539 111.737182 311.1640625 108.63378906 C311.35107727 107.71309631 311.53809204 106.79240356 311.73077393 105.84381104 C311.89905701 104.99689697 312.06734009 104.14998291 312.24072266 103.27740479 C312.38820953 102.54365757 312.53569641 101.80991035 312.68765259 101.05392838 C313.10022977 98.68716798 313.10022977 98.68716798 313 95 C309.93876088 95 307.65757213 95.16933223 304.72259521 95.75927734 Z M-64 128 C-64 133.28 -64 138.56 -64 144 C-58.72 144 -53.44 144 -48 144 C-48 138.72 -48 133.44 -48 128 C-53.28 128 -58.56 128 -64 128 Z M-64 160 C-64 165.28 -64 170.56 -64 176 C-58.72 176 -53.44 176 -48 176 C-48 170.72 -48 165.44 -48 160 C-53.28 160 -58.56 160 -64 160 Z M144 208 C144 218.56 144 229.12 144 240 C138.72 240 133.44 240 128 240 C128 266.4 128 292.8 128 320 C133.28 320 138.56 320 144 320 C144 330.56 144 341.12 144 352 C149.28 352 154.56 352 160 352 C160 341.44 160 330.88 160 320 C165.28 320 170.56 320 176 320 C176 293.6 176 267.2 176 240 C170.72 240 165.44 240 160 240 C160 229.44 160 218.88 160 208 C154.72 208 149.44 208 144 208 Z M272 208 C272 218.56 272 229.12 272 240 C266.72 240 261.44 240 256 240 C256 266.4 256 292.8 256 320 C261.28 320 266.56 320 272 320 C272 330.56 272 341.12 272 352 C277.28 352 282.56 352 288 352 C288 341.44 288 330.88 288 320 C293.28 320 298.56 320 304 320 C304 293.6 304 267.2 304 240 C298.72 240 293.44 240 288 240 C288 229.44 288 218.88 288 208 C282.72 208 277.44 208 272 208 Z M208 240 C208 250.56 208 261.12 208 272 C202.72 272 197.44 272 192 272 C192 298.4 192 324.8 192 352 C197.28 352 202.56 352 208 352 C208 362.56 208 373.12 208 384 C213.28 384 218.56 384 224 384 C224 373.44 224 362.88 224 352 C229.28 352 234.56 352 240 352 C240 325.6 240 299.2 240 272 C234.72 272 229.44 272 224 272 C224 261.44 224 250.88 224 240 C218.72 240 213.44 240 208 240 Z M80 256 C80 266.56 80 277.12 80 288 C74.72 288 69.44 288 64 288 C64 314.4 64 340.8 64 368 C69.28 368 74.56 368 80 368 C80 378.56 80 389.12 80 400 C85.28 400 90.56 400 96 400 C96 389.44 96 378.88 96 368 C101.28 368 106.56 368 112 368 C112 341.6 112 315.2 112 288 C106.72 288 101.44 288 96 288 C96 277.44 96 266.88 96 256 C90.72 256 85.44 256 80 256 Z M16 272 C16 282.56 16 293.12 16 304 C10.72 304 5.44 304 0 304 C0 330.4 0 356.8 0 384 C5.28 384 10.56 384 16 384 C16 394.56 16 405.12 16 416 C21.28 416 26.56 416 32 416 C32 405.44 32 394.88 32 384 C37.28 384 42.56 384 48 384 C48 357.6 48 331.2 48 304 C42.72 304 37.44 304 32 304 C32 293.44 32 282.88 32 272 C26.72 272 21.44 272 16 272 Z M-48 304 C-48 314.56 -48 325.12 -48 336 C-53.28 336 -58.56 336 -64 336 C-64 362.4 -64 388.8 -64 416 C-58.72 416 -53.44 416 -48 416 C-48 426.56 -48 437.12 -48 448 C-42.72 448 -37.44 448 -32 448 C-32 437.44 -32 426.88 -32 416 C-26.72 416 -21.44 416 -16 416 C-16 389.6 -16 363.2 -16 336 C-21.28 336 -26.56 336 -32 336 C-32 325.44 -32 314.88 -32 304 C-37.28 304 -42.56 304 -48 304 Z M192 400 C192 405.28 192 410.56 192 416 C228.96 416 265.92 416 304 416 C304 410.72 304 405.44 304 400 C267.04 400 230.08 400 192 400 Z M224 432 C224 437.28 224 442.56 224 448 C229.28 448 234.56 448 240 448 C240 442.72 240 437.44 240 432 C234.72 432 229.44 432 224 432 Z M256 432 C256 437.28 256 442.56 256 448 C261.28 448 266.56 448 272 448 C272 442.72 272 437.44 272 432 C266.72 432 261.44 432 256 432 Z M288 432 C288 437.28 288 442.56 288 448 C293.28 448 298.56 448 304 448 C304 442.72 304 437.44 304 432 C298.72 432 293.44 432 288 432 Z " fill="#000000" transform="translate(136,24)"/>
<path d="M0 0 C-0.56265415 6.98889908 -1.62305926 13.74381606 -3.06640625 20.6015625 C-3.26475571 21.564039 -3.46310516 22.5265155 -3.66746521 23.51815796 C-4.29438658 26.55477989 -4.92831541 29.58988759 -5.5625 32.625 C-5.99200304 34.69912219 -6.42104383 36.77334015 -6.84960938 38.84765625 C-7.89440333 43.89955959 -8.945479 48.9501185 -10 54 C-13.34594021 52.54360224 -15.55034467 50.70260396 -18.12597656 48.1328125 C-18.92650452 47.33858887 -19.72703247 46.54436523 -20.55181885 45.72607422 C-21.40612488 44.86771973 -22.26043091 44.00936523 -23.140625 43.125 C-24.02280701 42.24473145 -24.90498901 41.36446289 -25.81390381 40.45751953 C-28.15211439 38.12101752 -30.48538201 35.77970581 -32.81713867 33.43676758 C-34.72690749 31.52179237 -36.64404093 29.61427599 -38.56119156 27.70669556 C-40.8425236 25.43430977 -43.11624194 23.15433769 -45.390625 20.875 C-46.25302795 20.01664551 -47.11543091 19.15829102 -48.00396729 18.27392578 C-48.7918866 17.47970215 -49.57980591 16.68547852 -50.39160156 15.8671875 C-51.09013245 15.16706543 -51.78866333 14.46694336 -52.50836182 13.74560547 C-54 12 -54 12 -54 10 C-47.11461802 8.56893662 -40.22767665 7.14557327 -33.33959961 5.72753906 C-30.99678569 5.24428403 -28.65433372 4.75927073 -26.31225586 4.27246094 C-22.94478587 3.57283817 -19.5760627 2.87955919 -16.20703125 2.1875 C-14.63801811 1.85939331 -14.63801811 1.85939331 -13.03730774 1.5246582 C-12.05666855 1.32445068 -11.07602936 1.12424316 -10.06567383 0.91796875 C-9.20629715 0.74031982 -8.34692047 0.5626709 -7.46150208 0.37963867 C-4.93500925 -0.01002356 -2.55215869 -0.06706303 0 0 Z " fill="#000000" transform="translate(430,138)"/>
<path d="M0 0 C0 17.49 0 34.98 0 53 C-17.49 53 -34.98 53 -53 53 C-49.40454054 48.80529729 -45.98355775 44.85800932 -42.11206055 40.98266602 C-41.19478683 40.06224014 -40.27751312 39.14181427 -39.33244324 38.1934967 C-38.35066298 37.21350506 -37.36875182 36.23364455 -36.38671875 35.25390625 C-35.36621255 34.23272532 -34.34585474 33.21139608 -33.32563782 32.18992615 C-31.20170208 30.06452538 -29.07599112 27.94092102 -26.94897461 25.81860352 C-24.2172504 23.09261973 -21.49009909 20.36211175 -18.76422405 17.63028049 C-16.66517535 15.52763092 -14.56376662 13.42735308 -12.46161842 11.32780266 C-11.45411514 10.32096771 -10.44735762 9.31338594 -9.44135094 8.30505562 C-8.04363481 6.90481611 -6.6423931 5.50809845 -5.2409668 4.11157227 C-4.44409958 3.31550064 -3.64723236 2.51942902 -2.82621765 1.69923401 C-1 0 -1 0 0 0 Z " fill="#000000" transform="translate(120,35)"/>
<path d="M0 0 C5.28 0 10.56 0 16 0 C16 15.84 16 31.68 16 48 C10.72 48 5.44 48 0 48 C0 32.16 0 16.32 0 0 Z " fill="#000000" transform="translate(88,376)"/>
<path d="M0 0 C5.28 0 10.56 0 16 0 C16 15.84 16 31.68 16 48 C10.72 48 5.44 48 0 48 C0 32.16 0 16.32 0 0 Z " fill="#000000" transform="translate(152,344)"/>
<path d="M0 0 C5.28 0 10.56 0 16 0 C16 15.84 16 31.68 16 48 C10.72 48 5.44 48 0 48 C0 32.16 0 16.32 0 0 Z " fill="#000000" transform="translate(216,328)"/>
<path d="M0 0 C5.28 0 10.56 0 16 0 C16 15.84 16 31.68 16 48 C10.72 48 5.44 48 0 48 C0 32.16 0 16.32 0 0 Z " fill="#000000" transform="translate(344,312)"/>
<path d="M0 0 C5.28 0 10.56 0 16 0 C16 15.84 16 31.68 16 48 C10.72 48 5.44 48 0 48 C0 32.16 0 16.32 0 0 Z " fill="#000000" transform="translate(408,280)"/>
<path d="M0 0 C5.28 0 10.56 0 16 0 C16 15.84 16 31.68 16 48 C10.72 48 5.44 48 0 48 C0 32.16 0 16.32 0 0 Z " fill="#000000" transform="translate(280,280)"/>
</svg>
